HIERARCHY
ROOT Hips
{
	OFFSET -14.64140 90.27770 -84.91600
	CHANNELS 6 Xposition Yposition Zposition Zrotation Xrotation Yrotation
	JOINT Spine
	{
		OFFSET 0.00000 13.20850 -1.60436
		CHANNELS 3 Zrotation Xrotation Yrotation
		JOINT Spine1
		{
			OFFSET 0.00000 8.61716 0.00000
			CHANNELS 3 Zrotation Xrotation Yrotation
			JOINT Spine2
			{
				OFFSET 0.00000 8.61717 0.00000
				CHANNELS 3 Zrotation Xrotation Yrotation
				JOINT Spine3
				{
					OFFSET 0.00000 8.61717 0.00000
					CHANNELS 3 Zrotation Xrotation Yrotation
					JOINT Neck
					{
						OFFSET 0.00000 11.07920 1.10792
						CHANNELS 3 Zrotation Xrotation Yrotation
						JOINT Neck1
						{
							OFFSET 0.00000 7.08032 0.00000
							CHANNELS 3 Zrotation Xrotation Yrotation
							JOINT Head
							{
								OFFSET 0.00000 7.08031 0.00000
								CHANNELS 3 Zrotation Xrotation Yrotation
								End site
								{
									OFFSET 0.00000 0.00000 0.00000
								}
							}
						}
					}
					JOINT RightShoulder
					{
						OFFSET -0.01000 7.91373 5.19711
						CHANNELS 3 Zrotation Xrotation Yrotation
						JOINT RightArm
						{
							OFFSET -18.41580 0.00000 0.00000
							CHANNELS 3 Zrotation Xrotation Yrotation
							JOINT RightForeArm
							{
								OFFSET -29.11090 0.00000 0.00000
								CHANNELS 3 Zrotation Xrotation Yrotation
								JOINT RightHand
								{
									OFFSET -24.65040 0.00000 0.00000
									CHANNELS 3 Zrotation Xrotation Yrotation
									JOINT RightHandThumb1
									{
										OFFSET -5.35114 -0.85590 3.97906
										CHANNELS 3 Zrotation Xrotation Yrotation
										JOINT RightHandThumb2
										{
											OFFSET -4.52789 0.00000 0.00000
											CHANNELS 3 Zrotation Xrotation Yrotation
											JOINT RightHandThumb3
											{
												OFFSET -2.46976 0.00000 0.00000
												CHANNELS 3 Zrotation Xrotation Yrotation
												End site
												{
													OFFSET 0.00000 0.00000 0.00000
												}
											}
										}
									}
									JOINT RightHandIndex1
									{
										OFFSET -14.26970 0.00000 2.88139
										CHANNELS 3 Zrotation Xrotation Yrotation
										JOINT RightHandIndex2
										{
											OFFSET -5.48836 0.00000 0.00000
											CHANNELS 3 Zrotation Xrotation Yrotation
											JOINT RightHandIndex3
											{
												OFFSET -3.01859 0.00000 0.00000
												CHANNELS 3 Zrotation Xrotation Yrotation
												End site
												{
													OFFSET 0.00000 0.00000 0.00000
												}
											}
										}
									}
									JOINT RightHandMiddle1
									{
										OFFSET -14.26970 0.00000 -0.09147
										CHANNELS 3 Zrotation Xrotation Yrotation
										JOINT RightHandMiddle2
										{
											OFFSET -6.17441 0.00000 0.00000
											CHANNELS 3 Zrotation Xrotation Yrotation
											JOINT RightHandMiddle3
											{
												OFFSET -3.56743 0.00000 0.00000
												CHANNELS 3 Zrotation Xrotation Yrotation
												End site
												{
													OFFSET 0.00000 0.00000 0.00000
												}
											}
										}
									}
									JOINT RightHandRing1
									{
										OFFSET -12.69180 0.00000 -3.06433
										CHANNELS 3 Zrotation Xrotation Yrotation
										JOINT RightHandRing2
										{
											OFFSET -5.62556 0.00000 0.00000
											CHANNELS 3 Zrotation Xrotation Yrotation
											JOINT RightHandRing3
											{
												OFFSET -3.56744 0.00000 0.00000
												CHANNELS 3 Zrotation Xrotation Yrotation
												End site
												{
													OFFSET 0.00000 0.00000 0.00000
												}
											}
										}
									}
									JOINT RightHandPinky1
									{
										OFFSET -11.11390 0.00000 -6.03719
										CHANNELS 3 Zrotation Xrotation Yrotation
										JOINT RightHandPinky2
										{
											OFFSET -4.52789 0.00000 0.00000
											CHANNELS 3 Zrotation Xrotation Yrotation
											JOINT RightHandPinky3
											{
												OFFSET -2.46976 0.00000 0.00000
												CHANNELS 3 Zrotation Xrotation Yrotation
												End site
												{
													OFFSET 0.00000 0.00000 0.00000
												}
											}
										}
									}
								}
							}
						}
					}
					JOINT LeftShoulder
					{
						OFFSET 0.01000 7.91373 5.19711
						CHANNELS 3 Zrotation Xrotation Yrotation
						JOINT LeftArm
						{
							OFFSET 18.41580 0.00000 0.00000
							CHANNELS 3 Zrotation Xrotation Yrotation
							JOINT LeftForeArm
							{
								OFFSET 29.11090 0.00000 0.00000
								CHANNELS 3 Zrotation Xrotation Yrotation
								JOINT LeftHand
								{
									OFFSET 24.65040 0.00000 0.00000
									CHANNELS 3 Zrotation Xrotation Yrotation
									JOINT LeftHandThumb1
									{
										OFFSET 5.35114 -0.85590 3.97906
										CHANNELS 3 Zrotation Xrotation Yrotation
										JOINT LeftHandThumb2
										{
											OFFSET 4.52789 0.00000 0.00000
											CHANNELS 3 Zrotation Xrotation Yrotation
											JOINT LeftHandThumb3
											{
												OFFSET 2.46977 0.00000 0.00000
												CHANNELS 3 Zrotation Xrotation Yrotation
												End site
												{
													OFFSET 0.00000 0.00000 0.00000
												}
											}
										}
									}
									JOINT LeftHandIndex1
									{
										OFFSET 14.26970 0.00000 2.88139
										CHANNELS 3 Zrotation Xrotation Yrotation
										JOINT LeftHandIndex2
										{
											OFFSET 5.48836 0.00000 0.00000
											CHANNELS 3 Zrotation Xrotation Yrotation
											JOINT LeftHandIndex3
											{
												OFFSET 3.01859 0.00000 0.00000
												CHANNELS 3 Zrotation Xrotation Yrotation
												End site
												{
													OFFSET 0.00000 0.00000 0.00000
												}
											}
										}
									}
									JOINT LeftHandMiddle1
									{
										OFFSET 14.26970 0.00000 -0.09147
										CHANNELS 3 Zrotation Xrotation Yrotation
										JOINT LeftHandMiddle2
										{
											OFFSET 6.17440 0.00000 0.00000
											CHANNELS 3 Zrotation Xrotation Yrotation
											JOINT LeftHandMiddle3
											{
												OFFSET 3.56744 0.00000 0.00000
												CHANNELS 3 Zrotation Xrotation Yrotation
												End site
												{
													OFFSET 0.00000 0.00000 0.00000
												}
											}
										}
									}
									JOINT LeftHandRing1
									{
										OFFSET 12.69180 0.00000 -3.06433
										CHANNELS 3 Zrotation Xrotation Yrotation
										JOINT LeftHandRing2
										{
											OFFSET 5.62556 0.00000 0.00000
											CHANNELS 3 Zrotation Xrotation Yrotation
											JOINT LeftHandRing3
											{
												OFFSET 3.56744 0.00000 0.00000
												CHANNELS 3 Zrotation Xrotation Yrotation
												End site
												{
													OFFSET 0.00000 0.00000 0.00000
												}
											}
										}
									}
									JOINT LeftHandPinky1
									{
										OFFSET 11.11390 0.00000 -6.03719
										CHANNELS 3 Zrotation Xrotation Yrotation
										JOINT LeftHandPinky2
										{
											OFFSET 4.52789 0.00000 0.00000
											CHANNELS 3 Zrotation Xrotation Yrotation
											JOINT LeftHandPinky3
											{
												OFFSET 2.46976 0.00000 0.00000
												CHANNELS 3 Zrotation Xrotation Yrotation
												End site
												{
													OFFSET 0.00000 0.00000 0.00000
												}
											}
										}
									}
								}
							}
						}
					}
					JOINT pCube4
					{
						OFFSET 0.00000 10.91090 1.10792
						CHANNELS 3 Zrotation Xrotation Yrotation
						End site
						{
							OFFSET 0.00000 0.00000 0.00000
						}
					}
				}
			}
		}
	}
	JOINT RightUpLeg
	{
		OFFSET -9.98441 0.00000 0.00000
		CHANNELS 3 Zrotation Xrotation Yrotation
		JOINT RightLeg
		{
			OFFSET 0.00000 -42.11790 0.00000
			CHANNELS 3 Zrotation Xrotation Yrotation
			JOINT RightFoot
			{
				OFFSET 0.00000 -45.00020 -0.00001
				CHANNELS 3 Zrotation Xrotation Yrotation
				JOINT RightForeFoot
				{
					OFFSET 0.00000 -3.74820 0.00000
					CHANNELS 3 Zrotation Xrotation Yrotation
					JOINT RightToeBase
					{
						OFFSET 0.00000 0.06325 14.43120
						CHANNELS 3 Zrotation Xrotation Yrotation
						End site
						{
							OFFSET 0.00000 0.00000 0.00000
						}
					}
				}
			}
		}
	}
	JOINT LeftUpLeg
	{
		OFFSET 9.98441 0.00000 0.00000
		CHANNELS 3 Zrotation Xrotation Yrotation
		JOINT LeftLeg
		{
			OFFSET 0.00000 -42.11800 0.00000
			CHANNELS 3 Zrotation Xrotation Yrotation
			JOINT LeftFoot
			{
				OFFSET 0.00000 -45.00070 0.00000
				CHANNELS 3 Zrotation Xrotation Yrotation
				JOINT LeftForeFoot
				{
					OFFSET 0.00000 -3.74824 0.00000
					CHANNELS 3 Zrotation Xrotation Yrotation
					JOINT LeftToeBase
					{
						OFFSET 0.00000 0.06325 14.43110
						CHANNELS 3 Zrotation Xrotation Yrotation
						End site
						{
							OFFSET 0.00000 0.00000 0.00000
						}
					}
				}
			}
		}
	}
}
MOTION
Frames: 4
Frame Time: 0.050000
0.021991641718898697 -0.04417608835495409 -0.03672820107816541 -0.04312139534514545 0.03127193803693006 0.03812797234343745 3.3125390827786982 2.378295737304172 -1.8583166824646578 -0.6185770742424243 3.6446741112282517 0.31634575830230943 -0.6182883273592181 -1.5929075193146558 1.0844525343137639 -0.5373809044676712 -0.4022130941801284 -0.3321370403399081 0.15015671824310972 13.52564589186515 -1.5739567128674157 0.36500260349723546 -0.008067699693714129 -4.236499057768356 0.9835197960414291 -15.949515875602794 -0.3899680995699553 -7.84267501175206 2.818528946204895 -16.505492800118176 76.17194169484448 15.275581800097427 10.554233383309107 1.4330944427607992 0.7929682940463525 89.4854314499312 21.251421791335243 -0.48823804799662596 -4.3898245446487465 4.509445585343288 -0.16462856298535583 -1.6041035983812282 0.012671977907478984 -0.03525344032891053 -56.25963784300915 -0.049562838235838375 -0.04641008851776976 -56.2826718609709 -38.7362143339851 -0.02453792002805918 0.0016871356341898883 -0.00426490074132042 -0.03205845690596115 0.025598661141622816 -0.013247933763673178 -0.004208432115949123 0.018378912930289534 -36.70494795527661 0.023056490828066982 -0.03125610523949565 0.030106355357599222 0.016983641196998012 0.0151809156976329 0.03782972831270493 0.007525213475108555 -0.015117068454491189 -19.728447942345074 -0.03281594599236268 -0.006246362199264597 -0.029396441594639854 -0.027408894069820493 -0.04641497924582992 0.02614971275771488 0.010998411133060998 0.03349782854979636 24.09271935335586 0.0198107255535601 -0.0029951017112515854 28.841106836602506 0.004523871582820225 -0.01401958664085876 28.88894822503723 -0.023520287874979458 -0.0035660534465562247 8.664629491346576 2.175337231850614 14.626944244823793 -74.48333831767314 24.726774043250867 -11.394780653430962 -16.596812387500535 3.2536768130293328 -83.86758621092888 -23.390339975593786 -2.677925570848407 1.5943265885473186 -0.43984823866890377 0.04931215021730205 -8.12052811178908 -0.019659892161686586 0.04580583840081403 44.548024256177975 0.010695814844075195 -0.02744241549319886 44.557818231399224 12.49064917165729 -0.03256036033673838 0.03924188529881735 -0.018396039890022232 -0.03519887422838459 0.044236290509962015 -0.02539070772907984 -0.04117559706812953 0.03823071179895291 11.083746963279678 -0.01809016995415691 -0.027727508601965285 0.046890511816368746 -0.034552616452699726 0.015665481414843592 0.010877760831872507 0.03352331236835835 -0.03769784110841355 4.787890242849583 0.0365736855089378 0.03801482179425313 0.04765727268358403 0.016579928402052167 0.021143068399202963 0.02381391817551945 -0.03694173093842324 -0.0023712276294318092 -5.589455413603686 -0.049551262506262246 0.018312172765575913 -6.751607243333946 0.012109133084297877 -0.01749936755315275 -6.686603069878259 -0.006626718981449661 0.04507849410346421 -0.03654941343948631 -0.039623148190446836 0.04548750164385995 8.023019103355065 3.52678083570216 -19.21216671013177 -0.013637407118588888 10.429163578777073 0.016642046507621005 -5.666967484988309 -15.667497734134345 3.197324343948723 0.017522295554608134 -0.03203132323756721 -0.015516968541081548 0.029857995215360526 4.688962571610589 0.012852620606041866 12.43754636518818 -8.23556804739055 6.91568824748913 0.034151213406137276 46.357116833018075 0.02293319693265428 -4.300483736596853 -14.741744991530284 -3.798046565709443 -0.04209398734472474 -0.003394001891420304 0.013343189132076522 -0.008001265457284041 -10.77300978491542 0.04520857346926188 
-0.04002152643481747 -0.008198161416769349 -0.03190436849760708 -0.01101858256842455 0.0060040226734701645 -0.009392634939452896 3.7220854534148344 2.380600292442065 -1.8795556097431665 -0.6038690448971265 3.708208556090308 0.3791950515688203 -0.6146059430850226 -1.5491954873015872 1.0604117307586693 -0.5360927436098271 -0.3809047350836004 -0.27547951841189255 0.14834025263332568 13.654005701624566 -1.5122612197349277 0.3633055006029208 0.16845479324227952 -3.8104360586113484 0.8581176436775506 -15.720159447986434 -0.29651044534053866 -8.354593993946152 2.953466735970667 -16.77849886407413 76.72579747958561 17.069573819611573 9.557936817320986 -0.537750048332457 0.30331141747646867 87.74076653275951 21.146674324810633 -0.4955700232976928 -4.637232965168238 4.530734827717652 -0.12395880171505011 -1.5712744701844663 0.003327168454793208 -0.023419445910729978 -56.24034796302556 -0.009875546891539777 -0.026002022071906855 -56.218407320733604 -38.75960055344808 0.045071142003946005 0.04756607111471951 0.03365228822023381 0.041447864537907775 0.005491449322197729 -0.014348400882185156 0.047503041707625676 0.016707679402451044 -36.66606880825315 -0.023483131726389012 -0.0021136922504480997 -0.002067055250858644 0.023573052173042106 0.02952047761830978 0.033512206083548664 -0.04705953206628451 0.02217601900796611 -19.757061294327077 -0.0352013724850045 0.010679570031570454 0.03417542630158228 -0.027633400288840478 -0.022390460271528023 -0.03556302094668242 0.036892795010127225 -0.021303239080041083 24.058213458739807 -0.031161941951046535 -0.03511256483283236 28.899915829710118 0.007878520242804082 0.007570633871052488 28.849699350417197 0.0010856771083771351 0.008057012708965082 9.15361170369993 2.2346984060242447 14.795761035203833 -74.37945973861812 25.661374639880886 -11.68266975071623 -15.429987388202752 2.677416376273885 -83.35157659154851 -23.222071609236657 -3.7863606826049 2.332057788129042 -0.49181085339170827 0.057749489622083594 -8.138868792137139 0.003495790691595237 0.024263663691333242 44.5318946744683 0.03404645032326564 0.02636998442558521 44.57913469552404 12.50678699675382 0.047374389090222416 0.00461073967647754 0.045661732214380274 -0.031829706570070004 0.032128672771518776 -0.02575632529233169 -0.0062209748261002435 -0.003974384310113665 11.12074022912075 -0.005259710010442985 -0.02235994566401527 -0.006809621405013906 0.03506213022935789 -0.015423966215739278 0.01738023589927334 0.016370710946365614 0.025526004930022418 4.793509931928859 -0.03243475350208454 0.028184192962904957 -0.029179979662166216 -0.028022877242022615 0.0006290535994521184 -0.022654686297548944 -0.010457323297752175 -0.029609672301403843 -5.63978166220476 0.0468815818251059 0.0076390754050067915 -6.730554683788634 -0.024439204506189385 0.01207184190162743 -6.74318292886559 -0.0057846144125177565 -0.04421960542616889 -0.029367097430796796 0.03505262064250169 -0.002187912505781716 8.04203729150837 3.51875102675134 -19.222787673556077 -0.016637111886467864 10.402421739955622 -0.029484330757603396 -5.602281463723605 -15.633233096628476 3.1969234578342167 0.025538381746307848 -0.0008499992818115855 -0.018105068906129795 -0.027030663480746307 4.703044966246915 -0.012799517180183807 12.430588896171805 -8.251614591415603 6.852936670432802 -0.0318923501994166 46.39371588527391 0.04407823835968503 -4.343969268618387 -14.776662826746731 -3.835052981915379 -0.007990414009941934 -0.047037167900085705 0.04463584011429712 -0.04097903956674442 -10.739157773744218 0.007437071071677388 
0.032109408704315966 0.04230456574816743 0.04206987621559591 0.012307030564249253 0.012976054205592015 0.007885966932045423 4.062265267628472 2.350901464989162 -1.947732677447644 -0.6105816194050941 3.6628442924748783 0.3532680624463789 -0.5950181446927395 -1.5181295555770358 0.9772519358793624 -0.4737493478346975 -0.2913287116418375 -0.2878012442699427 -0.005454985233106453 13.951060065245466 -1.3387866360575105 0.3296306462534158 0.34738184703590624 -3.3073564863503053 0.8157737981503851 -15.506166148360165 -0.28044881819695444 -8.736904049830901 3.03409089070896 -17.008772536720606 77.25960244900618 18.78762563384656 8.927335499941941 -2.1112260178186246 0.017581842044342398 86.57187403250421 21.11710467731924 -0.5807905159523644 -4.876397255343599 4.50538941455653 -0.1474119078304299 -1.5692210599011405 0.03221869706269863 0.028905945465301026 -56.20138475506797 0.029144439978695612 0.03105666791156657 -56.26311347631534 -38.80509962753212 0.023677881509551052 -0.0014656288031549792 -0.004035045777466303 0.018532492517331068 -0.03786441968984929 0.044746349136656996 -0.039844461838166416 0.036188579379854945 -36.72899190007547 0.04301664436245281 -0.029251419193926726 0.026042985949509104 0.009704304609624757 0.04100756762689909 -0.024841956356919687 -0.01178323077350534 -0.024951249329378995 -19.78308020892383 -0.02692299806092013 0.030054331253398032 -0.02450235627449915 0.0012011630217821946 -0.018746998030127204 -0.042392576043909856 -0.03344910344193251 0.0032658620126634593 24.061726756615645 -0.04667063861792636 -0.013623661077307411 28.855407909201748 0.000981108945455325 0.02150917162591122 28.869854385306024 0.02277485484709211 0.0360016532221826 9.695120619589181 2.2941544682057637 14.914784996458408 -74.077849768179 26.528118771503973 -12.229245437622787 -14.84155309513223 2.5123462684936295 -83.2951050651252 -23.442882249443162 -4.839717220333057 3.1840344034104966 -0.48652900794968523 0.06148805234974562 -8.10262324058207 -0.014072981182293637 0.04567923379778475 44.552675774818255 -0.003965078941585311 -0.02488274148117158 44.558239099160595 12.423998944523891 -0.012867915992245257 0.03144242790709712 -0.037173152560112124 -0.006618653744806646 0.03443798940482849 -0.02728057194966816 0.012868631506627511 0.005092315805506989 11.119844259503228 -0.026563264455867396 0.0006124693680140133 -0.0017781339820524737 0.043754381706851704 -0.005831217151330382 -0.04967403200177674 -0.013760564119354269 -0.024182049284697513 4.765455015503741 -0.004139320291456719 0.007080175911556625 -0.023347110147606015 -0.026105317639924866 0.008880662042590904 0.0036195869728947254 0.027139050562233695 0.03859885461020656 -5.564887506960706 -0.018820455537906854 -0.031800942713711304 -6.763398960899891 -0.038864509436016825 -0.004279527014546977 -6.695965203512961 -0.036967944619436865 0.003961365621285006 0.029753405463256846 -0.03890540980819494 -0.040098500435827425 8.035043860593147 3.5010689498227947 -19.21021498926151 -0.01631594273379705 10.402228648511931 0.023930336098319148 -5.587673806801766 -15.62468057145271 3.2128562661591804 0.024134405391008473 -0.031288376617568565 -0.016488410591985893 -0.032987325665300285 4.734314226846959 0.02470940956266709 12.427446387223037 -8.258653497625652 6.867266162985543 0.02848431204031012 46.4047867745389 0.03644084156030624 -4.311090822239742 -14.745023913666389 -3.836148304045008 -0.022662648888373167 -0.013247977227201104 -0.04168849468578976 -0.0003046369695211571 -10.73511443127974 -0.004910511285724469 
-0.009643639224617374 0.018021312131549602 0.017815068655441284 0.0423120986677237 0.024625207275394252 -0.020264486368997584 4.291958046381926 2.287832965581771 -1.9633947907419624 -0.6809473382111343 3.6476283375779333 0.36829650150894566 -0.6044983116353697 -1.5570792324425635 0.9467899846285278 -0.47236633375657494 -0.25793620681973733 -0.2897149845216628 -0.008782484561616427 14.139919955937312 -1.141085016114686 0.3481588255112882 0.5010940339295342 -2.6485726104080234 0.7223421051885756 -15.309745620875574 -0.18284957178353506 -8.954955793187402 3.1398976778235608 -17.12579744253498 77.84359749716121 20.097054017666455 8.592207693293236 -3.231942329128183 0.11169328832818444 86.3230090835578 21.144774168737033 -0.49648648227726105 -5.1439699572383635 4.543417035720775 -0.07807070381672523 -1.5670017174937212 -0.0472064740781085 0.005245682249254506 -56.24355580535435 -0.0003627904523538347 0.008954905907850362 -56.186700549824415 -38.76875199539211 -0.02065055574258085 -0.035806995754742395 0.008722148924512224 0.024364180502987765 0.017195213250766582 0.04269790849915741 -0.023135703292617653 -0.04275849081973354 -36.70686840036057 0.04289560939861514 0.022603446518967153 0.027577572282456213 -0.0038403152400072436 0.04840248284205609 0.007709381123013335 0.02644521112068054 0.00999617950423517 -19.7955468448303 -0.024372867364053547 0.012186228507543851 -0.002276360742400403 -0.04255531638162954 -0.021464855196995588 0.027213245222809757 0.029707464874600003 -0.0367040628219842 24.070115950197426 0.03451696291719058 -0.024791279960980912 28.885024127265346 -0.019717593345035037 -0.0023085888515699997 28.87143175046686 -0.031178684082331296 0.03243519267398234 10.13397299472209 2.3955828559512895 14.990684571462877 -73.94612728780214 26.87070637952929 -12.816911147332052 -14.95967388413759 2.8191516552467664 -83.93751328985262 -23.561103187106465 -5.782663796334823 3.9024239163078227 -0.515660129992217 0.09083187522102473 -8.133930560859849 -0.02857516100800472 -0.01200832092755288 44.543391325591 0.01151345620151401 0.020291339275982846 44.58294456503879 12.464625857717806 -0.04191845707638373 -0.009687525686956048 -0.03899744673662363 -0.04269316935917034 0.017199225446395745 -0.016526780374717928 0.002244323179674421 0.0019854402064928022 11.129817437993905 -0.047218460091265645 0.004068032378305799 0.004736265705638143 0.01451106128814841 -0.020436586036125824 0.011719116546113467 0.03375602255800107 -0.033432523002143694 4.801334312168493 -0.030961298185308118 -0.046971219889058696 -0.0294712771231022 0.046350909374586614 -0.04142641501482271 -0.040635588008539926 0.04787089375775937 -0.003454898701295463 -5.623387630138842 -0.010731441348501828 0.010089548814440234 -6.730774170126236 0.007284742045647211 0.0006871909859071873 -6.738691440923384 0.027554894714890806 0.018869911278033044 0.00895792386775929 -0.020399614778700392 -0.01855117947132426 8.04876258746499 3.525642530838917 -19.209029783088372 0.018073702911274036 10.428105378519755 -0.026147474824386636 -5.636330257369763 -15.670468536395518 3.1832352992697683 0.04504427299750175 0.013074433878662993 0.024248869599946606 0.011096892356067856 4.7385177334127135 -0.009467311860298323 12.428931018367392 -8.264417997775258 6.842254971263242 -0.020235535821581028 46.3687293773122 -0.0067107249678918166 -4.310753661860726 -14.70396746146317 -3.882576167028827 0.004036631778923861 -0.03127306301823933 -0.031047717076357485 0.019525691900677086 -10.696186880706383 0.0035201802526493155 
